<svg width="107" height="56" viewBox="0 0 107 56" fill="none" xmlns="http://www.w3.org/2000/svg">
<path d="M39.9752 42C39.4152 42 38.6152 41.48 38.0152 40.76C37.5352 40.12 37.6552 38.84 38.0152 37.28C36.5352 39.2 35.0952 41 33.7752 41.68C33.4552 41.88 31.9352 41.32 31.7352 40.88C30.5752 38.36 34.8152 28.52 35.2952 26.6C35.2952 26.44 35.2952 26.36 35.4552 26.4C35.7352 26.48 37.4952 27.44 37.0152 28.28C35.6152 30.8 32.8952 39.04 33.9352 39.68C34.5352 40.08 36.0952 38.68 38.6552 35.08C39.0952 34.28 41.7752 27.04 41.7352 26.56C41.6952 26.36 41.7352 26.28 41.8952 26.32C42.1752 26.4 43.9752 27.24 43.5352 28.12C41.3352 32.56 39.1752 40 40.2552 40C41.1352 40 45.0152 32.12 46.2552 29.56L46.6552 30.72C44.2552 35.52 41.3752 42 39.9752 42ZM44.6577 41.76C43.6577 41.48 43.0577 40.92 42.6577 40.16C41.7377 38.28 44.6577 36.04 48.3377 33.8C47.4977 32.24 45.2977 31.32 45.2977 29.28C45.2977 28.84 45.5377 28.4 45.9777 27.96C47.1377 26.8 48.4577 26.16 49.6577 26.16C50.2577 26.16 50.6577 26.48 50.8977 26.84C51.1777 26.48 51.4177 26.2 51.4977 26.16H51.6177C52.0977 26.16 52.8977 27 52.8977 27.64C52.8977 27.76 52.8177 27.84 52.7377 27.84C51.8977 27.96 50.4977 29.44 50.2577 30.88C49.6977 31.04 49.1777 30.76 49.2177 30.16C49.2577 29.24 49.7377 28.56 50.2977 27.72C48.9377 28.16 47.1377 29.36 47.1377 30.2C47.1377 31.2 48.4977 31.88 49.6177 33.08C51.6977 31.84 53.9377 30.64 55.7777 29.44L56.1777 30.68C54.7377 31.44 52.5777 32.76 50.4577 34.16C50.8177 34.8 51.0577 35.52 51.0577 36.44C51.0577 39.6 48.0977 42.76 44.6577 41.76ZM43.7777 40.32C44.9777 41.64 48.4577 38.8 48.6577 35.44C45.9377 37.4 43.6577 39.4 43.7777 40.32ZM54.1061 41.92C53.5861 41.92 52.7461 41.4 52.1861 40.68C50.5061 38.48 56.0261 27.84 55.9061 26.48C55.8661 26.28 55.8661 26.2 56.0261 26.24C56.3461 26.32 58.1461 27.16 57.7061 28.04C55.5061 32.48 53.3061 39.92 54.4261 39.92C55.0661 39.92 58.9861 32.08 60.3861 29.52C60.5061 29.92 60.7061 30.56 60.7861 30.76C59.3861 33.44 55.3061 41.92 54.1061 41.92ZM57.6661 24.08C57.5061 23 57.8661 21.08 58.0661 20.84C58.7061 20.08 60.9061 21.84 60.2661 22.2C59.7461 22.44 58.3061 24.16 58.1861 24.96C58.1461 25.24 57.7861 24.96 57.6661 24.08ZM60.7377 41.92C59.1777 41.88 56.3777 39.88 57.8577 34C59.0177 29.44 62.0977 26.16 64.5377 26.2C66.7377 26.24 67.6577 29.28 66.0577 33.2C67.3777 32.6 69.4177 30.76 70.2177 29.52L70.5377 30.76C69.6577 32.36 67.1377 34.92 65.6977 35.84C65.1377 37.48 63.4177 41.96 60.7377 41.92ZM60.6177 33.12C59.3377 36.64 59.8177 39.16 61.6177 39.2C62.8577 39.24 64.0177 37.92 64.8977 36.16C62.7377 36.16 63.8577 33.2 64.8977 33.2C64.9777 33.32 65.1377 33.36 65.2577 33.4C66.3777 30.28 66.0177 27.48 65.1377 27.48C63.8577 27.44 61.8577 29.68 60.6177 33.12ZM74.6577 41.92C74.1377 41.92 73.2977 41.4 72.7377 40.68C71.3777 38.88 74.8177 31.44 76.0177 28.04C76.3777 27.04 73.0977 28.6 70.1377 33.12C67.9377 37.8 66.9377 40.96 68.2577 41.36C68.6177 41.32 68.2577 41.72 67.8177 41.72C67.2577 41.68 66.6977 41.28 66.1377 40.52C64.5777 38.24 70.6577 27.92 70.6177 26.52C70.5777 26.36 70.6177 26.28 70.7777 26.32C71.0577 26.4 72.8177 27.36 72.3377 28.2C72.0177 28.8 71.6577 29.48 71.3377 30.24C73.2977 27.88 75.6577 25.92 76.5777 26.24C76.8977 26.32 78.6977 27.16 78.2577 28.04C76.0577 32.48 73.8577 39.92 74.9777 39.92C75.6177 39.92 79.5377 32.08 80.9377 29.52C81.0577 29.92 81.2577 30.56 81.3377 30.76C79.9777 33.44 75.8577 41.92 74.6577 41.92Z" fill="black"/>
<path d="M19.017 22.42C18.5236 21.7133 18.0103 21.0267 17.477 20.36C16.957 19.68 16.397 19.0267 15.797 18.4C15.7303 18.3333 15.697 18.26 15.697 18.18C15.697 18.1 15.7103 18.02 15.737 17.94C15.7903 17.74 15.9036 17.5333 16.077 17.32C16.2503 17.1067 16.4236 16.94 16.597 16.82C16.237 16.8333 15.8703 16.8467 15.497 16.86C15.137 16.86 14.777 16.8667 14.417 16.88C13.3103 16.9067 12.2103 16.9467 11.117 17C10.0236 17.0533 8.92362 17.1133 7.81695 17.18C7.79029 17.18 7.77029 17.1867 7.75695 17.2C7.73029 17.2 7.70362 17.2 7.67695 17.2H7.45695C7.37695 17.2 7.29695 17.2067 7.21695 17.22C7.12362 17.2333 7.03695 17.24 6.95695 17.24C6.85029 17.24 6.73695 17.2467 6.61695 17.26C6.49695 17.2733 6.38362 17.2867 6.27695 17.3C8.51695 17.9 10.7236 18.6267 12.897 19.48C15.057 20.3333 17.1303 21.36 19.117 22.56C19.0903 22.5333 19.0703 22.5133 19.057 22.5C19.057 22.4733 19.0436 22.4467 19.017 22.42ZM36.337 15.5C36.2703 15.6733 36.1703 15.8533 36.037 16.04C35.9036 16.2133 35.7503 16.3533 35.577 16.46L35.097 16.76L31.677 18.86C31.6103 18.9133 31.5303 18.96 31.437 19C31.357 19.04 31.2703 19.06 31.177 19.06C31.0036 19.06 30.917 18.9533 30.917 18.74C30.917 18.6333 30.9436 18.52 30.997 18.4C31.0636 18.2667 31.137 18.14 31.217 18.02C31.297 17.9 31.3836 17.7933 31.477 17.7C31.5836 17.5933 31.677 17.5133 31.757 17.46L32.237 17.16C32.3836 17.0667 32.5236 16.98 32.657 16.9C32.7903 16.82 32.9236 16.74 33.057 16.66H31.357C31.1703 16.66 30.977 16.66 30.777 16.66C30.577 16.6467 30.3836 16.6467 30.197 16.66C29.117 16.66 28.0303 16.6667 26.937 16.68C25.857 16.68 24.777 16.68 23.697 16.68C21.5636 16.68 19.437 16.72 17.317 16.8C18.037 17.64 18.7236 18.4867 19.377 19.34C20.0436 20.18 20.6836 21.06 21.297 21.98C21.8303 22.78 22.3303 23.5933 22.797 24.42C23.277 25.2467 23.7503 26.08 24.217 26.92C25.1103 26.8 26.0036 26.7067 26.897 26.64C27.8036 26.5733 28.7103 26.52 29.617 26.48C29.7103 26.48 29.7636 26.52 29.777 26.6C29.8036 26.6667 29.8236 26.7333 29.837 26.8C29.8636 26.92 29.8436 27.0333 29.777 27.14C29.7103 27.2467 29.6436 27.3533 29.577 27.46C29.457 27.6467 29.297 27.8267 29.097 28C28.897 28.1733 28.677 28.2667 28.437 28.28C28.2903 28.2933 28.1436 28.3067 27.997 28.32C27.8503 28.32 27.7036 28.3267 27.557 28.34C27.4903 28.34 27.417 28.3467 27.337 28.36C27.2703 28.36 27.2036 28.36 27.137 28.36H27.037C27.0103 28.36 26.977 28.3667 26.937 28.38C26.897 28.38 26.8636 28.38 26.837 28.38C26.6503 28.38 26.4703 28.3867 26.297 28.4C26.137 28.4133 25.9636 28.4333 25.777 28.46L25.057 28.52C25.857 30.0933 26.6103 31.68 27.317 33.28C28.0236 34.8667 28.6836 36.4867 29.297 38.14C29.5103 38.7 29.7103 39.2667 29.897 39.84C30.097 40.4133 30.277 40.9933 30.437 41.58C30.4636 41.6867 30.457 41.7867 30.417 41.88C30.3903 41.9733 30.357 42.0667 30.317 42.16C30.277 42.2667 30.2103 42.38 30.117 42.5C30.0236 42.62 29.9236 42.7333 29.817 42.84C29.7103 42.9467 29.5903 43.0333 29.457 43.1C29.337 43.18 29.217 43.22 29.097 43.22C28.9503 43.22 28.8703 43.1667 28.857 43.06C28.8436 42.9933 28.8236 42.9067 28.797 42.8C28.6903 42.3467 28.557 41.9 28.397 41.46C28.237 41.02 28.077 40.58 27.917 40.14C27.2103 38.22 26.4436 36.3267 25.617 34.46C24.7903 32.6067 23.897 30.7733 22.937 28.96L22.897 28.9C22.8836 28.8733 22.8703 28.8533 22.857 28.84C22.8436 28.8267 22.8303 28.8067 22.817 28.78C22.3503 28.8333 21.8636 28.9 21.357 28.98C20.8503 29.06 20.3703 29.1933 19.917 29.38H19.877C19.8503 29.3933 19.8236 29.4067 19.797 29.42C19.7703 29.4333 19.7436 29.4467 19.717 29.46C19.677 29.4733 19.6303 29.4867 19.577 29.5C19.537 29.5133 19.4903 29.5267 19.437 29.54C19.3836 29.54 19.3236 29.52 19.257 29.48C19.177 29.4267 19.137 29.3533 19.137 29.26C19.1503 29.1533 19.1703 29.0667 19.197 29C19.2236 28.8933 19.2703 28.78 19.337 28.66C19.417 28.54 19.5036 28.4267 19.597 28.32C19.6903 28.2133 19.7903 28.1133 19.897 28.02C20.0036 27.9267 20.1036 27.8533 20.197 27.8C20.4236 27.68 20.657 27.5933 20.897 27.54C21.137 27.4733 21.3836 27.4067 21.637 27.34C21.5836 27.2867 21.5303 27.24 21.477 27.2C21.437 27.1467 21.397 27.0933 21.357 27.04C21.037 26.6267 20.5903 26.2067 20.017 25.78C19.457 25.34 18.8303 24.9133 18.137 24.5C17.4436 24.0733 16.7036 23.66 15.917 23.26C15.1303 22.8467 14.3503 22.4667 13.577 22.12C12.8036 21.7733 12.057 21.46 11.337 21.18C10.617 20.8867 9.97695 20.6467 9.41695 20.46C7.96362 19.98 6.50362 19.52 5.03695 19.08C3.55695 18.64 2.05695 18.32 0.536953 18.12C0.430286 18.1067 0.363619 18.0667 0.336953 18C0.310286 17.92 0.303619 17.8333 0.316952 17.74C0.330286 17.6467 0.356953 17.56 0.396952 17.48C0.436952 17.3867 0.470286 17.3133 0.496952 17.26C0.670286 16.9267 0.876952 16.6933 1.11695 16.56C1.34362 16.4267 1.61695 16.3067 1.93695 16.2C2.32362 16.0667 2.72362 15.98 3.13695 15.94C3.55029 15.8867 3.95695 15.8333 4.35695 15.78C5.65029 15.62 6.93695 15.5 8.21695 15.42C9.49695 15.34 10.7836 15.2733 12.077 15.22C14.397 15.1133 16.7036 15.0333 18.997 14.98C21.2903 14.9133 23.597 14.88 25.917 14.88C26.597 14.88 27.2703 14.88 27.937 14.88C28.6036 14.8667 29.277 14.8533 29.957 14.84C30.5036 14.8267 31.0436 14.8267 31.577 14.84C32.1236 14.84 32.677 14.84 33.237 14.84C33.597 14.84 33.957 14.8467 34.317 14.86C34.677 14.86 35.0436 14.86 35.417 14.86H36.197C36.2636 14.86 36.3103 14.8867 36.337 14.94C36.377 14.9933 36.4036 15.0467 36.417 15.1C36.4303 15.2067 36.4036 15.34 36.337 15.5Z" fill="black"/>
<path d="M82.6806 37.918C82.6586 37.962 82.5926 37.984 82.5706 38.05C82.3506 38.468 82.1746 38.908 81.9546 39.348C81.6906 39.876 81.4706 40.426 81.2286 40.954C81.1406 41.108 81.0966 41.24 81.0526 41.394C81.0306 41.438 81.0086 41.504 81.0306 41.526C81.1406 41.702 81.0526 41.812 80.9426 41.922C80.9206 42.01 80.8546 42.032 80.8106 42.01C80.7226 41.988 80.6566 41.9 80.6566 41.856C80.6566 41.614 80.6346 41.394 80.6566 41.174C80.7006 40.998 80.7226 40.844 80.7446 40.69C80.7446 40.58 80.8106 40.448 80.8326 40.294C80.8766 40.052 80.8766 39.81 80.9426 39.59C81.0526 39.326 80.9866 39.084 81.1186 38.886C81.0966 38.622 81.2066 38.38 81.2726 38.138C81.3386 37.896 81.3826 37.632 81.4266 37.39C81.6026 36.774 81.7566 36.114 81.9326 35.498C82.1086 34.86 82.3066 34.244 82.4826 33.628C82.5926 33.1 82.7686 32.616 82.9226 32.132C83.1866 31.34 83.4726 30.548 83.8026 29.822C83.9786 29.47 84.1326 29.14 84.2866 28.81C84.5286 28.304 84.8366 27.842 85.1666 27.38C85.2546 27.226 85.3866 27.094 85.5406 26.962C85.6726 26.808 85.8706 26.764 86.0906 26.764C86.2226 26.786 86.3326 26.808 86.4426 26.896C86.4866 26.962 86.5306 27.006 86.6186 27.094C86.6846 27.16 86.6846 27.292 86.6626 27.38C86.6186 27.534 86.5306 27.688 86.4866 27.798C86.5086 27.93 86.5526 28.062 86.6186 28.194C86.7506 28.04 86.7506 28.04 86.7506 27.776C87.0146 27.622 87.2566 27.512 87.4766 27.358C87.6746 27.38 87.8066 27.49 87.9166 27.6C87.9606 27.644 88.0046 27.754 87.9826 27.776C87.8286 28.04 87.8946 28.348 87.8946 28.634C87.8066 28.634 87.7626 28.678 87.8066 28.788C87.8066 28.81 87.8286 28.81 87.8286 28.832C87.8726 28.81 87.8946 28.81 87.8946 28.788C87.8946 28.722 87.8946 28.656 87.8946 28.612C87.9166 28.612 87.9606 28.612 88.0046 28.634L87.9826 28.612C87.9826 28.722 87.9826 28.854 87.9386 28.942C87.7406 29.36 87.6086 29.778 87.4326 30.174C87.2566 30.592 87.0806 31.01 86.9046 31.406C86.5526 32.132 86.1786 32.858 85.8266 33.584C85.3866 34.486 84.9466 35.41 84.5066 36.334C84.1986 36.95 83.9126 37.544 83.6266 38.182C83.2966 38.996 82.8346 39.788 82.5486 40.624C82.2626 41.13 82.1306 41.68 81.8886 42.208C81.7786 42.406 81.6906 42.626 81.6466 42.824C81.6026 42.934 81.5366 43.022 81.4926 43.132C81.4266 42.978 81.4266 42.846 81.4706 42.714C81.6026 42.274 81.6246 41.856 81.7566 41.438C81.8666 41.13 81.9326 40.8 82.0206 40.492C82.1966 39.766 82.3946 39.018 82.6586 38.292C82.6806 38.182 82.6586 38.072 82.6586 37.918C82.7026 37.896 82.7246 37.896 82.7466 37.874C82.7686 37.852 82.7466 37.83 82.7466 37.764C82.7466 37.764 82.7246 37.764 82.7246 37.742C82.7026 37.764 82.6806 37.786 82.6806 37.83C82.6806 37.874 82.6806 37.896 82.6806 37.918ZM87.9826 28.612L88.0046 28.634C88.0046 28.546 87.9606 28.414 88.0486 28.348C88.1146 28.436 88.1366 28.546 87.9826 28.612ZM88.1366 28.172L88.1586 28.15V28.172H88.1366ZM87.2931 37.566V37.544C87.2491 37.566 87.2051 37.61 87.2051 37.698C87.2051 37.742 87.2051 37.808 87.2051 37.852C87.0951 37.874 87.0951 37.984 87.1171 38.05C87.1391 38.16 87.2051 38.204 87.2051 38.27C87.2051 38.292 87.0511 38.292 87.0511 38.358C86.9851 38.49 86.9851 38.644 86.9191 38.82C86.8751 38.974 86.8091 39.15 86.7211 39.326C86.6551 39.568 86.4571 39.7 86.1051 39.612C86.0171 39.524 85.8411 39.414 85.7311 39.304C85.6431 39.106 85.6211 38.908 85.6871 38.688C85.7531 38.358 85.7751 38.006 85.8631 37.676C86.0171 36.928 86.1931 36.268 86.3691 35.586C86.7211 34.64 87.0951 33.694 87.4251 32.748C87.7771 31.824 88.1731 30.944 88.5471 30.02C88.6571 29.69 88.7011 29.338 88.8991 29.052C88.9871 28.898 88.9871 28.832 89.0531 28.788C89.2511 28.502 89.5371 28.37 89.9331 28.348C90.2411 28.348 90.3951 28.568 90.5931 28.7C90.7031 28.854 90.8791 29.074 91.0111 29.228C91.1651 29.404 91.2091 29.624 91.0991 29.778C91.0771 29.954 91.0991 30.064 91.0551 30.196C91.0551 30.438 91.1651 30.702 91.0551 30.922C91.0331 31.01 91.0771 31.098 91.0771 31.186C91.0771 31.538 91.0991 31.89 91.1431 32.22C91.1651 32.44 91.1651 32.594 91.0771 32.792C91.0551 32.946 91.0991 33.166 91.0991 33.342C91.0991 33.584 91.2311 33.87 91.0991 34.134C91.0771 34.178 91.0771 34.222 91.0771 34.266C91.1211 34.75 91.1651 35.234 91.2091 35.74C91.2311 35.828 91.2751 35.938 91.4291 35.982C91.5611 35.916 91.6491 35.762 91.7371 35.608C91.9571 34.97 92.1991 34.398 92.4631 33.782C92.6611 33.452 92.8151 33.078 92.9691 32.704C93.1011 32.396 93.2991 32.132 93.4091 31.846C94.0031 30.68 94.7291 29.602 95.4551 28.502C95.6531 28.304 95.8071 28.106 95.8951 27.886C96.0271 27.644 96.2251 27.49 96.5111 27.336C96.5991 27.292 96.6871 27.27 96.7971 27.226C96.9731 27.248 97.1491 27.336 97.3251 27.468C97.5231 27.6 97.6331 27.754 97.5011 27.93C97.4791 28.062 97.3691 28.15 97.3031 28.26C97.3031 28.304 97.3031 28.37 97.3031 28.37C97.3911 28.392 97.5231 28.414 97.5451 28.392C97.6111 28.304 97.6991 28.216 97.7651 28.128C97.8751 28.194 97.8531 28.26 97.8091 28.37C97.6991 28.59 97.5451 28.832 97.3471 29.074C97.0611 29.492 96.8851 29.998 96.5991 30.438C96.5111 30.636 96.4451 30.79 96.3351 30.944C96.3131 31.01 96.2911 31.054 96.2471 31.12C96.0051 31.604 95.7851 32.044 95.5651 32.572C95.3451 33.166 95.0371 33.76 94.8391 34.42C94.6851 34.86 94.4431 35.322 94.2231 35.784C93.9151 36.356 93.6511 36.928 93.3211 37.5C92.9031 38.226 92.5071 39.018 92.1551 39.766C92.0451 40.008 91.9351 40.206 91.8251 40.448C91.6931 40.272 91.7371 40.14 91.7151 39.942C91.6931 39.788 91.6931 39.612 91.6711 39.48C91.4731 39.414 91.4731 39.568 91.3851 39.59C91.2311 39.59 91.1651 39.612 91.0771 39.612C90.9231 39.612 90.9231 39.722 90.9231 39.788C90.9011 39.832 90.7471 39.832 90.7031 39.788C90.5711 39.59 90.3731 39.414 90.3071 39.238C90.0211 38.688 89.7791 38.226 89.6031 37.72C89.5151 37.5 89.4491 37.28 89.4051 37.016C89.3391 36.796 89.2071 36.642 89.1851 36.444C89.1851 36.268 89.1631 36.07 89.0091 35.916C88.9651 35.806 88.9431 35.718 88.9871 35.586C88.9431 35.212 88.8551 34.86 88.7011 34.464C88.3711 34.86 88.2831 35.322 88.0851 35.74C87.8651 36.158 87.7551 36.62 87.6231 37.06C87.5351 37.038 87.5131 37.038 87.4471 37.016C87.3371 37.104 87.5351 37.192 87.5351 37.324C87.4911 37.346 87.4691 37.39 87.4691 37.39C87.4471 37.39 87.4251 37.368 87.3591 37.346C87.2711 37.39 87.2931 37.5 87.2931 37.566ZM90.4831 37.104C90.4611 37.61 90.4171 38.05 90.7691 38.49C90.8131 38.38 90.7911 38.27 90.8571 38.182C90.9451 37.984 90.9231 37.786 90.7251 37.566C90.6591 37.412 90.5931 37.28 90.4831 37.104ZM91.3851 33.122C91.2971 32.748 91.2531 32.242 91.2751 31.846C91.4291 32.198 91.4511 32.638 91.3851 33.122ZM91.2971 33.276C91.3191 33.298 91.3411 33.32 91.3411 33.342C91.3851 33.694 91.4071 34.024 91.4291 34.42C91.2971 33.936 91.2751 33.716 91.2971 33.276ZM91.3191 31.142C91.3191 31.076 91.2971 31.01 91.2751 30.944C91.2751 30.68 91.2311 30.372 91.2971 30.064C91.3191 30.24 91.3411 30.372 91.3411 30.482C91.3631 30.702 91.3851 30.944 91.3191 31.142ZM91.4071 35.102C91.4071 35.102 91.3631 35.124 91.3631 35.168H91.3411C91.2751 35.124 91.2531 34.97 91.2751 34.926C91.3191 34.926 91.3191 34.926 91.3411 34.926L91.3851 34.97C91.4071 35.036 91.4071 35.058 91.4071 35.102ZM87.2931 37.544V37.566C87.4691 37.566 87.4471 37.632 87.4031 37.72C87.3151 37.698 87.2931 37.61 87.2931 37.544ZM87.2051 37.852C87.3591 37.918 87.3371 37.984 87.2931 38.05C87.2051 38.006 87.2271 37.94 87.2051 37.852ZM99.9915 29.074C100.014 29.074 100.058 29.096 100.102 29.14C99.9915 29.206 100.014 29.074 99.9915 29.074C99.9035 29.096 99.9035 29.228 99.9035 29.294C100.014 29.404 100.014 29.514 99.9035 29.624C99.9035 29.8 99.8375 29.932 99.7715 30.108C99.4855 31.032 99.1555 31.956 98.8695 32.88C98.9575 32.99 99.0015 32.88 99.0895 32.836C99.3755 32.462 99.7055 32.132 100.058 31.846L101.554 30.504C102.302 29.91 103.072 29.36 103.864 28.788C104.348 28.502 104.81 28.15 105.25 27.864C105.382 27.82 105.514 27.688 105.624 27.666C105.8 27.622 105.976 27.622 106.108 27.71C106.218 27.864 106.35 27.952 106.482 28.062C106.394 28.37 106.196 28.568 106.042 28.788C106.108 28.876 106.24 28.876 106.306 28.81C106.394 28.766 106.482 28.7 106.57 28.634L106.702 28.7C106.482 28.876 106.328 29.096 106.086 29.272C105.888 29.426 105.734 29.624 105.492 29.8C105.162 29.954 104.92 30.174 104.678 30.394C103.996 31.01 103.204 31.516 102.5 32.088C101.972 32.528 101.378 32.88 100.828 33.298C100.762 33.32 100.74 33.342 100.74 33.342C100.146 33.87 100.146 33.694 100.498 34.376C100.74 34.794 101.532 36.004 101.84 36.444C102.28 37.016 102.72 37.566 103.27 38.006C103.688 38.38 104.128 38.666 104.546 39.018C104.568 39.062 104.656 39.062 104.678 39.106C104.898 39.348 104.854 39.568 104.546 39.722C104.48 39.744 104.458 39.788 104.392 39.81C104.018 39.678 103.666 39.502 103.336 39.216C102.918 38.842 102.478 38.512 102.126 38.138C102.104 38.072 101.994 38.072 101.95 38.028L101.906 37.83C101.576 37.456 101.268 37.038 101.004 36.598C100.982 36.554 100.894 36.532 100.828 36.466C100.85 36.554 100.85 36.642 100.85 36.686C101.18 37.126 101.444 37.588 101.774 37.962C101.84 37.984 101.906 38.006 101.928 38.028C101.95 38.138 101.95 38.204 101.994 38.226C102.566 38.798 103.094 39.37 103.776 39.832C104.018 39.986 104.26 40.14 104.634 40.184C104.634 40.272 104.546 40.294 104.458 40.36C104.37 40.404 104.238 40.426 104.172 40.426C104.018 40.426 103.952 40.404 103.82 40.382C103.754 40.36 103.644 40.36 103.578 40.294C103.49 40.294 103.446 40.25 103.38 40.25C103.27 40.294 103.336 40.382 103.38 40.404C103.49 40.448 103.6 40.514 103.688 40.602C103.754 40.602 103.688 40.646 103.688 40.646C103.6 40.712 103.512 40.668 103.446 40.646C102.742 40.36 102.148 39.964 101.576 39.524C101.026 39.128 100.564 38.666 100.08 38.204C99.3315 37.5 98.7155 36.642 98.2095 35.674L98.1435 35.498C98.0335 35.564 97.9895 35.586 97.9675 35.652C97.9015 35.806 97.8135 35.938 97.7915 36.026C97.6375 36.576 97.5055 37.06 97.3295 37.61C97.1535 38.358 96.9115 39.084 96.4935 39.744C96.4055 39.898 96.1855 40.756 96.0315 40.822C95.9875 40.844 95.9435 40.888 95.8995 40.932C95.6575 41.218 95.4595 40.668 95.1075 40.778C94.9975 40.712 94.8875 40.558 94.7995 40.47C94.7115 40.404 94.6235 40.382 94.4695 40.272C94.3595 40.096 94.3375 39.832 94.3375 39.568C94.2715 38.864 94.4475 38.204 94.6235 37.566C94.8435 36.796 95.0635 36.004 95.3935 35.256C95.6795 34.464 96.0315 33.65 96.3395 32.858C96.6915 32.088 97.0655 31.274 97.4835 30.504C97.7915 29.888 98.2095 29.294 98.5615 28.7C98.7815 28.414 99.0455 28.304 99.3095 28.216C99.4195 28.15 99.5295 28.172 99.5735 28.26C99.7055 28.37 99.7935 28.48 99.9475 28.59L100.124 28.436C100.124 28.524 100.102 28.612 100.058 28.722C99.9915 28.81 100.014 28.942 99.9915 29.074ZM96.6255 38.886C96.6255 38.864 96.6915 38.864 96.7135 38.864C96.8015 38.578 96.9335 38.314 96.9995 38.028C97.1755 37.566 97.2855 37.038 97.4835 36.576C97.5055 36.488 97.5055 36.422 97.5055 36.312C97.5275 36.224 97.6375 36.18 97.5275 36.07C97.5055 36.136 97.4175 36.158 97.3955 36.202C97.3295 36.356 97.2855 36.466 97.2855 36.598C97.2415 36.95 97.0215 37.236 96.9995 37.566C96.9555 37.896 96.7795 38.182 96.6915 38.49C96.6255 38.644 96.6255 38.776 96.6255 38.886ZM100.41 35.718H100.388C100.454 35.982 100.586 36.268 100.784 36.466C100.784 36.488 100.806 36.466 100.828 36.466C100.762 36.202 100.608 35.916 100.41 35.718ZM100.036 34.926V34.75C100.036 34.662 100.014 34.596 99.9035 34.596C99.9035 34.486 99.9255 34.376 99.8375 34.244C99.8155 34.222 99.7935 34.178 99.7055 34.222C99.7495 34.376 99.7495 34.53 99.9035 34.596V34.794C99.9035 34.86 99.9255 34.926 100.036 34.926ZM98.6495 32.858C98.6935 32.77 98.7155 32.682 98.7155 32.594C98.6275 32.638 98.5615 32.682 98.5395 32.77V32.924C98.5615 32.88 98.6495 32.88 98.6495 32.858ZM98.9355 32.176V31.934C98.8255 31.956 98.8255 32 98.8255 32.088V32.242C98.8475 32.22 98.9355 32.198 98.9355 32.176ZM99.1555 31.494V31.296C99.0895 31.318 99.0455 31.384 99.0455 31.406V31.604C99.1335 31.604 99.1555 31.538 99.1555 31.494ZM98.4295 33.078V33.276L98.5395 33.21V32.968C98.4955 32.968 98.4295 33.012 98.4295 33.078ZM99.3095 31.142C99.3095 31.098 99.3095 31.032 99.2655 30.988C99.1995 31.01 99.1995 31.054 99.1995 31.076C99.1995 31.164 99.1995 31.23 99.1775 31.274C99.2435 31.274 99.3095 31.23 99.3095 31.142ZM99.9035 29.624C99.7495 29.514 99.7495 29.404 99.9035 29.294V29.624ZM99.3975 30.812V30.592C99.3315 30.614 99.3095 30.68 99.3095 30.768V30.966C99.3755 30.944 99.3975 30.878 99.3975 30.812ZM98.8035 32.528C98.8255 32.462 98.8035 32.374 98.8035 32.286C98.7375 32.308 98.7155 32.374 98.7155 32.44V32.594C98.7375 32.572 98.8035 32.572 98.8035 32.528ZM99.5075 30.482V30.284C99.4415 30.306 99.4195 30.372 99.4195 30.416V30.57C99.5075 30.57 99.5075 30.548 99.5075 30.482ZM99.0235 31.868V31.626C98.9795 31.648 98.9575 31.692 98.9575 31.736V31.934C98.9795 31.912 99.0235 31.89 99.0235 31.868ZM100.234 35.322L100.256 35.3C100.256 35.234 100.234 35.19 100.146 35.168V35.3C100.146 35.3 100.19 35.322 100.234 35.322ZM98.4295 33.408V33.276C98.3635 33.298 98.3195 33.342 98.3195 33.408C98.3195 33.43 98.3635 33.452 98.3635 33.452L98.4295 33.408ZM96.6255 38.886C96.5155 38.93 96.5155 38.996 96.5155 39.084C96.5155 39.106 96.5375 39.106 96.5595 39.128C96.5595 39.106 96.5815 39.106 96.5815 39.084C96.5815 39.018 96.5815 38.952 96.6255 38.886ZM100.388 35.564C100.388 35.542 100.322 35.52 100.3 35.52C100.3 35.542 100.278 35.586 100.278 35.586C100.3 35.652 100.344 35.652 100.366 35.696C100.388 35.652 100.41 35.63 100.388 35.564ZM100.058 34.948C100.058 35.036 100.014 35.124 100.124 35.124C100.124 35.036 100.168 34.992 100.058 34.948ZM99.5515 30.064C99.5515 30.152 99.5295 30.196 99.5295 30.284C99.6395 30.24 99.6175 30.174 99.5515 30.064ZM99.7055 29.91L99.7495 29.844C99.7275 29.822 99.7275 29.8 99.7055 29.8C99.6835 29.822 99.6395 29.844 99.6395 29.866C99.6395 29.888 99.7055 29.888 99.7055 29.91ZM100.19 28.304C100.19 28.37 100.168 28.392 100.146 28.392C100.146 28.37 100.146 28.348 100.19 28.304ZM100.146 28.414L100.124 28.436V28.392H100.146V28.414Z" fill="#D93D3D"/>
<path d="M42.1458 50.4473C42.1458 50.2559 42.093 50.0625 41.9876 49.8672C41.8821 49.668 41.6907 49.4824 41.4134 49.3105C41.136 49.1387 40.7356 48.9961 40.2122 48.8828C39.8567 48.8047 39.5442 48.7188 39.2747 48.625C39.0091 48.5312 38.7864 48.4199 38.6067 48.291C38.427 48.1582 38.2923 47.998 38.2024 47.8105C38.1126 47.623 38.0677 47.4004 38.0677 47.1426C38.0677 46.9199 38.1145 46.7129 38.2083 46.5215C38.3059 46.3262 38.4466 46.1562 38.6302 46.0117C38.8137 45.8633 39.0364 45.748 39.2981 45.666C39.5598 45.584 39.8567 45.543 40.1887 45.543C40.6614 45.543 41.0657 45.6191 41.4016 45.7715C41.7415 45.9238 42.0012 46.1367 42.1809 46.4102C42.3645 46.6797 42.4563 46.9941 42.4563 47.3535H42.1341C42.1341 47.0918 42.0579 46.8477 41.9055 46.6211C41.7571 46.3945 41.5384 46.2109 41.2493 46.0703C40.9602 45.9297 40.6067 45.8594 40.1887 45.8594C39.763 45.8594 39.4173 45.9238 39.1516 46.0527C38.886 46.1816 38.6907 46.3438 38.5657 46.5391C38.4446 46.7344 38.3841 46.9316 38.3841 47.1309C38.3841 47.2949 38.4075 47.4473 38.4544 47.5879C38.5012 47.7246 38.5911 47.8535 38.7239 47.9746C38.8606 48.0918 39.0559 48.2031 39.3098 48.3086C39.5637 48.4141 39.8958 48.5137 40.3059 48.6074C40.8098 48.7207 41.22 48.8574 41.5364 49.0176C41.8528 49.1777 42.0852 49.375 42.2337 49.6094C42.386 49.8398 42.4622 50.1211 42.4622 50.4531C42.4622 50.6992 42.4095 50.9238 42.304 51.127C42.2024 51.3301 42.054 51.5059 41.8587 51.6543C41.6673 51.8027 41.4329 51.918 41.1555 52C40.8821 52.0781 40.5755 52.1172 40.2356 52.1172C39.7239 52.1172 39.2903 52.0391 38.9348 51.8828C38.5833 51.7227 38.3157 51.5117 38.1321 51.25C37.9524 50.9844 37.8626 50.6973 37.8626 50.3887H38.179C38.2063 50.752 38.3255 51.0371 38.5364 51.2441C38.7512 51.4473 39.011 51.5918 39.3157 51.6777C39.6243 51.7598 39.9309 51.8008 40.2356 51.8008C40.6536 51.8008 41.0032 51.7344 41.2845 51.6016C41.5696 51.4688 41.7845 51.2988 41.929 51.0918C42.0735 50.8809 42.1458 50.666 42.1458 50.4473ZM49.1245 45.6602V45.9824H46.189V45.6602H49.1245ZM47.3609 43.9492H47.6831V50.4824C47.6831 50.8535 47.7261 51.1348 47.812 51.3262C47.9019 51.5137 48.0191 51.6406 48.1636 51.707C48.312 51.7695 48.4702 51.8008 48.6382 51.8008C48.7593 51.8008 48.8667 51.7969 48.9605 51.7891C49.0542 51.7773 49.1558 51.7637 49.2652 51.748L49.3179 52.0469C49.232 52.0742 49.1206 52.0918 48.9839 52.0996C48.8472 52.1113 48.7378 52.1172 48.6558 52.1172C48.3862 52.1172 48.1538 52.0703 47.9585 51.9766C47.7671 51.8789 47.6187 51.7109 47.5132 51.4727C47.4116 51.2344 47.3609 50.9043 47.3609 50.4824V43.9492ZM57.7791 50.5352V45.6602H58.1013V52H57.7791V50.5352ZM57.8318 49.5215L58.1013 49.5098C58.1013 49.8848 58.0525 50.2305 57.9548 50.5469C57.8572 50.8633 57.7068 51.1406 57.5037 51.3789C57.3005 51.6133 57.0408 51.7949 56.7244 51.9238C56.408 52.0527 56.031 52.1172 55.5935 52.1172C55.2849 52.1172 55.0017 52.0742 54.7439 51.9883C54.49 51.8984 54.2693 51.7578 54.0818 51.5664C53.8982 51.375 53.7556 51.125 53.6541 50.8164C53.5564 50.5039 53.5076 50.127 53.5076 49.6855V45.6602H53.824V49.6973C53.824 50.084 53.867 50.4121 53.9529 50.6816C54.0427 50.9512 54.1658 51.168 54.322 51.332C54.4822 51.4961 54.6677 51.6152 54.8787 51.6895C55.0935 51.7637 55.3279 51.8008 55.5818 51.8008C56.1521 51.8008 56.6013 51.6914 56.9295 51.4727C57.2576 51.2539 57.49 50.9707 57.6267 50.623C57.7634 50.2715 57.8318 49.9043 57.8318 49.5215ZM67.1133 50.7695V43H67.4297V52H67.1133V50.7695ZM62.5723 48.8887V48.7656C62.5723 48.2656 62.625 47.8184 62.7305 47.4238C62.8398 47.0254 62.9961 46.6875 63.1992 46.4102C63.4062 46.1289 63.6582 45.9141 63.9551 45.7656C64.252 45.6172 64.5879 45.543 64.9629 45.543C65.3105 45.543 65.6191 45.5957 65.8887 45.7012C66.1621 45.8066 66.3984 45.9551 66.5977 46.1465C66.8008 46.334 66.9688 46.5547 67.1016 46.8086C67.2344 47.0625 67.3359 47.3379 67.4062 47.6348V50.2188C67.3555 50.4688 67.2656 50.709 67.1367 50.9395C67.0117 51.166 66.8457 51.3691 66.6387 51.5488C66.4355 51.7246 66.1934 51.8633 65.9121 51.9648C65.6309 52.0664 65.3105 52.1172 64.9512 52.1172C64.5762 52.1172 64.2402 52.041 63.9434 51.8887C63.6504 51.7324 63.4023 51.5117 63.1992 51.2266C62.9961 50.9414 62.8398 50.6016 62.7305 50.207C62.625 49.8125 62.5723 49.373 62.5723 48.8887ZM62.9004 48.7656V48.8887C62.9004 49.3105 62.9414 49.6992 63.0234 50.0547C63.1094 50.4102 63.2363 50.7188 63.4043 50.9805C63.5723 51.2383 63.7852 51.4395 64.043 51.584C64.3008 51.7285 64.6016 51.8008 64.9453 51.8008C65.3906 51.8008 65.7695 51.7227 66.082 51.5664C66.3945 51.4102 66.6445 51.2012 66.832 50.9395C67.0195 50.6777 67.1484 50.3887 67.2188 50.0723V47.8457C67.1758 47.6504 67.1074 47.4395 67.0137 47.2129C66.9238 46.9824 66.793 46.7656 66.6211 46.5625C66.4531 46.3555 66.2324 46.1875 65.959 46.0586C65.6895 45.9258 65.3555 45.8594 64.957 45.8594C64.6094 45.8594 64.3066 45.9316 64.0488 46.0762C63.791 46.2207 63.5762 46.4238 63.4043 46.6855C63.2363 46.9434 63.1094 47.25 63.0234 47.6055C62.9414 47.957 62.9004 48.3438 62.9004 48.7656ZM72.592 45.6602V52H72.2756V45.6602H72.592ZM72.1116 43.6797C72.1116 43.5898 72.1428 43.5137 72.2053 43.4512C72.2678 43.3848 72.344 43.3516 72.4338 43.3516C72.5237 43.3516 72.5998 43.3848 72.6623 43.4512C72.7288 43.5137 72.762 43.5898 72.762 43.6797C72.762 43.7695 72.7288 43.8457 72.6623 43.9082C72.5998 43.9707 72.5237 44.002 72.4338 44.002C72.344 44.002 72.2678 43.9707 72.2053 43.9082C72.1428 43.8457 72.1116 43.7695 72.1116 43.6797ZM76.9516 48.9531V48.707C76.9516 48.2422 77.018 47.8164 77.1509 47.4297C77.2876 47.043 77.477 46.709 77.7192 46.4277C77.9653 46.1465 78.2583 45.9297 78.5981 45.7773C78.938 45.6211 79.313 45.543 79.7231 45.543C80.1372 45.543 80.5141 45.6211 80.854 45.7773C81.1938 45.9297 81.4868 46.1465 81.7329 46.4277C81.979 46.709 82.1684 47.043 82.3012 47.4297C82.4341 47.8164 82.5005 48.2422 82.5005 48.707V48.9531C82.5005 49.418 82.4341 49.8438 82.3012 50.2305C82.1684 50.6172 81.979 50.9512 81.7329 51.2324C81.4907 51.5137 81.1997 51.7324 80.8598 51.8887C80.52 52.041 80.145 52.1172 79.7348 52.1172C79.3208 52.1172 78.9438 52.041 78.604 51.8887C78.2641 51.7324 77.9712 51.5137 77.7251 51.2324C77.479 50.9512 77.2876 50.6172 77.1509 50.2305C77.018 49.8438 76.9516 49.418 76.9516 48.9531ZM77.268 48.707V48.9531C77.268 49.332 77.3227 49.6934 77.4321 50.0371C77.5454 50.377 77.7075 50.6797 77.9184 50.9453C78.1294 51.2109 78.3872 51.4199 78.6919 51.5723C78.9966 51.7246 79.3442 51.8008 79.7348 51.8008C80.1216 51.8008 80.4653 51.7246 80.7661 51.5723C81.0708 51.4199 81.3286 51.2109 81.5395 50.9453C81.7505 50.6797 81.9106 50.377 82.02 50.0371C82.1294 49.6934 82.1841 49.332 82.1841 48.9531V48.707C82.1841 48.3359 82.1294 47.9805 82.02 47.6406C81.9106 47.3008 81.7485 46.998 81.5337 46.7324C81.3227 46.4629 81.0649 46.25 80.7602 46.0938C80.4555 45.9375 80.1098 45.8594 79.7231 45.8594C79.3364 45.8594 78.9907 45.9375 78.686 46.0938C78.3852 46.25 78.1274 46.4629 77.9126 46.7324C77.7016 46.998 77.5415 47.3008 77.4321 47.6406C77.3227 47.9805 77.268 48.3359 77.268 48.707ZM90.7097 50.4473C90.7097 50.2559 90.657 50.0625 90.5515 49.8672C90.446 49.668 90.2546 49.4824 89.9773 49.3105C89.6999 49.1387 89.2995 48.9961 88.7761 48.8828C88.4206 48.8047 88.1081 48.7188 87.8386 48.625C87.573 48.5312 87.3503 48.4199 87.1706 48.291C86.9909 48.1582 86.8562 47.998 86.7663 47.8105C86.6765 47.623 86.6316 47.4004 86.6316 47.1426C86.6316 46.9199 86.6784 46.7129 86.7722 46.5215C86.8698 46.3262 87.0105 46.1562 87.1941 46.0117C87.3777 45.8633 87.6003 45.748 87.862 45.666C88.1237 45.584 88.4206 45.543 88.7527 45.543C89.2253 45.543 89.6296 45.6191 89.9655 45.7715C90.3054 45.9238 90.5652 46.1367 90.7448 46.4102C90.9284 46.6797 91.0202 46.9941 91.0202 47.3535H90.698C90.698 47.0918 90.6218 46.8477 90.4695 46.6211C90.321 46.3945 90.1023 46.2109 89.8132 46.0703C89.5241 45.9297 89.1706 45.8594 88.7527 45.8594C88.3269 45.8594 87.9812 45.9238 87.7155 46.0527C87.4499 46.1816 87.2546 46.3438 87.1296 46.5391C87.0085 46.7344 86.948 46.9316 86.948 47.1309C86.948 47.2949 86.9714 47.4473 87.0183 47.5879C87.0652 47.7246 87.155 47.8535 87.2878 47.9746C87.4245 48.0918 87.6198 48.2031 87.8737 48.3086C88.1277 48.4141 88.4597 48.5137 88.8698 48.6074C89.3737 48.7207 89.7839 48.8574 90.1003 49.0176C90.4167 49.1777 90.6491 49.375 90.7976 49.6094C90.9499 49.8398 91.0261 50.1211 91.0261 50.4531C91.0261 50.6992 90.9734 50.9238 90.8679 51.127C90.7663 51.3301 90.6179 51.5059 90.4226 51.6543C90.2312 51.8027 89.9968 51.918 89.7195 52C89.446 52.0781 89.1394 52.1172 88.7995 52.1172C88.2878 52.1172 87.8542 52.0391 87.4987 51.8828C87.1472 51.7227 86.8796 51.5117 86.696 51.25C86.5163 50.9844 86.4265 50.6973 86.4265 50.3887H86.7429C86.7702 50.752 86.8894 51.0371 87.1003 51.2441C87.3152 51.4473 87.5749 51.5918 87.8796 51.6777C88.1882 51.7598 88.4948 51.8008 88.7995 51.8008C89.2175 51.8008 89.5671 51.7344 89.8484 51.6016C90.1335 51.4688 90.3484 51.2988 90.4929 51.0918C90.6374 50.8809 90.7097 50.666 90.7097 50.4473Z" fill="black"/>
<path d="M36.8864 48H24M105 48H92.1136" stroke="black" stroke-width="0.3"/>
</svg>
