<svg xmlns="http://www.w3.org/2000/svg" width="107" height="52" fill="none" viewBox="0 0 107 52">
  <g class="LOGO">
    <path fill="#fff" d="M39.975 38c-.56 0-1.36-.52-1.96-1.24-.48-.64-.36-1.92 0-3.48-1.48 1.92-2.92 3.72-4.24 4.4-.32.2-1.84-.36-2.04-.8-1.16-2.52 3.08-12.36 3.56-14.28 0-.16 0-.24.16-.2.28.08 2.04 1.04 1.56 1.88-1.4 2.52-4.12 10.76-3.08 11.4.6.4 2.16-1 4.72-4.6.44-.8 3.12-8.04 3.08-8.52-.04-.2 0-.28.16-.24.28.08 2.08.92 1.64 1.8-2.2 4.44-4.36 11.88-3.28 11.88.88 0 4.76-7.88 6-10.44l.4 1.16c-2.4 4.8-5.28 11.28-6.68 11.28Zm4.683-.24c-1-.28-1.6-.84-2-1.6-.92-1.88 2-4.12 5.68-6.36-.84-1.56-3.04-2.48-3.04-4.52 0-.44.24-.88.68-1.32 1.16-1.16 2.48-1.8 3.68-1.8.6 0 1 .32 1.24.68.28-.36.52-.64.6-.68h.12c.48 0 1.28.84 1.28 1.48 0 .12-.08.2-.16.2-.84.12-2.24 1.6-2.48 3.04-.56.16-1.08-.12-1.04-.72.04-.92.52-1.6 1.08-2.44-1.36.44-3.16 1.64-3.16 2.48 0 1 1.36 1.68 2.48 2.88 2.08-1.24 4.32-2.44 6.16-3.64l.4 1.24c-1.44.76-3.6 2.08-5.72 3.48.36.64.6 1.36.6 2.28 0 3.16-2.96 6.32-6.4 5.32Zm-.88-1.44c1.2 1.32 4.68-1.52 4.88-4.88-2.72 1.96-5 3.96-4.88 4.88Zm10.328 1.6c-.52 0-1.36-.52-1.92-1.24-1.68-2.2 3.84-12.84 3.72-14.2-.04-.2-.04-.28.12-.24.32.08 2.12.92 1.68 1.8-2.2 4.44-4.4 11.88-3.28 11.88.64 0 4.56-7.84 5.96-10.4.12.4.32 1.04.4 1.24-1.4 2.68-5.48 11.16-6.68 11.16Zm3.56-17.84c-.16-1.08.2-3 .4-3.24.64-.76 2.84 1 2.2 1.36-.52.24-1.96 1.96-2.08 2.76-.04.28-.4 0-.52-.88Zm3.072 17.84c-1.56-.04-4.36-2.04-2.88-7.92 1.16-4.56 4.24-7.84 6.68-7.8 2.2.04 3.12 3.08 1.52 7 1.32-.6 3.36-2.44 4.16-3.68l.32 1.24c-.88 1.6-3.4 4.16-4.84 5.08-.56 1.64-2.28 6.12-4.96 6.08Zm-.12-8.8c-1.28 3.52-.8 6.04 1 6.08 1.24.04 2.4-1.28 3.28-3.04-2.16 0-1.04-2.96 0-2.96.08.12.24.16.36.2 1.12-3.12.76-5.92-.12-5.92-1.28-.04-3.28 2.2-4.52 5.64Zm14.04 8.8c-.52 0-1.36-.52-1.92-1.24-1.36-1.8 2.08-9.24 3.28-12.64.36-1-2.92.56-5.88 5.08-2.2 4.68-3.2 7.84-1.88 8.24.36-.04 0 .36-.44.36-.56-.04-1.12-.44-1.68-1.2-1.56-2.28 4.52-12.6 4.48-14-.04-.16 0-.24.16-.2.28.08 2.04 1.04 1.56 1.88-.32.6-.68 1.28-1 2.04 1.96-2.36 4.32-4.32 5.24-4 .32.08 2.12.92 1.68 1.8-2.2 4.44-4.4 11.88-3.28 11.88.64 0 4.56-7.84 5.96-10.4.12.4.32 1.04.4 1.24-1.36 2.68-5.48 11.16-6.68 11.16Z" class="usion"/>
    <path fill="#fff" d="M19.017 18.42a39.452 39.452 0 0 0-1.54-2.06c-.52-.68-1.08-1.333-1.68-1.96a.306.306 0 0 1-.1-.22c0-.08.013-.16.04-.24.053-.2.167-.407.34-.62.173-.213.347-.38.52-.5l-1.1.04c-.36 0-.72.007-1.08.02a137.21 137.21 0 0 0-3.3.12 287.65 287.65 0 0 0-3.3.18c-.027 0-.047.007-.06.02h-.3c-.08 0-.16.007-.24.02-.093.013-.18.02-.26.02-.107 0-.22.007-.34.02-.12.013-.233.027-.34.04 2.24.6 4.447 1.327 6.62 2.18 2.16.853 4.233 1.88 6.22 3.08l-.06-.06c0-.027-.013-.053-.04-.08Zm17.32-6.92a2.463 2.463 0 0 1-.3.54 1.714 1.714 0 0 1-.46.42l-.48.3-3.42 2.1a1.06 1.06 0 0 1-.24.14.573.573 0 0 1-.26.06c-.173 0-.26-.107-.26-.32 0-.107.027-.22.08-.34.067-.133.14-.26.22-.38.08-.12.167-.227.26-.32.107-.107.2-.187.28-.24l.48-.3c.147-.093.287-.18.42-.26l.4-.24h-2.28a4.22 4.22 0 0 0-.58 0c-1.08 0-2.167.007-3.26.02h-3.24c-2.133 0-4.26.04-6.38.12.72.84 1.407 1.687 2.06 2.54a39.447 39.447 0 0 1 3.42 5.08c.48.827.953 1.66 1.42 2.5.893-.12 1.787-.213 2.68-.28.907-.067 1.813-.12 2.72-.16.093 0 .147.04.16.12.027.067.047.133.06.2a.44.44 0 0 1-.06.34l-.2.32a2.54 2.54 0 0 1-.48.54c-.2.173-.42.267-.66.28l-.44.04c-.147 0-.293.007-.44.02-.067 0-.14.007-.22.02h-.3a.33.33 0 0 0-.1.02h-.1a7.06 7.06 0 0 0-1.06.08l-.72.06c.8 1.573 1.553 3.16 2.26 4.76a82.396 82.396 0 0 1 1.98 4.86c.213.56.413 1.127.6 1.7.2.573.38 1.153.54 1.74a.46.46 0 0 1-.02.3c-.027.093-.06.187-.1.28-.04.107-.107.22-.2.34-.093.12-.193.233-.3.34a1.378 1.378 0 0 1-.36.26c-.12.08-.24.12-.36.12-.147 0-.227-.053-.24-.16a11.889 11.889 0 0 0-.46-1.6l-.48-1.32a95.476 95.476 0 0 0-2.3-5.68 90.868 90.868 0 0 0-2.68-5.5l-.04-.06a.234.234 0 0 0-.04-.06.229.229 0 0 1-.04-.06c-.467.053-.953.12-1.46.2a6.38 6.38 0 0 0-1.44.4h-.04l-.08.04-.08.04c-.04.013-.087.027-.14.04-.04.013-.087.027-.14.04a.358.358 0 0 1-.18-.06.25.25 0 0 1-.12-.22 1.07 1.07 0 0 1 .06-.26 1.41 1.41 0 0 1 .14-.34 3.265 3.265 0 0 1 .56-.64c.107-.093.207-.167.3-.22.227-.12.46-.207.7-.26.24-.067.487-.133.74-.2a1.516 1.516 0 0 0-.16-.14l-.12-.16c-.32-.413-.767-.833-1.34-1.26a17.76 17.76 0 0 0-1.88-1.28 31.346 31.346 0 0 0-2.22-1.24 41.823 41.823 0 0 0-2.34-1.14c-.773-.347-1.52-.66-2.24-.94a31.98 31.98 0 0 0-1.92-.72c-1.453-.48-2.913-.94-4.38-1.38a29.08 29.08 0 0 0-4.5-.96c-.107-.013-.173-.053-.2-.12a.561.561 0 0 1-.02-.26.844.844 0 0 1 .08-.26c.04-.093.073-.167.1-.22.173-.333.38-.567.62-.7.227-.133.5-.253.82-.36.387-.133.787-.22 1.2-.26.413-.053.82-.107 1.22-.16a63.9 63.9 0 0 1 3.86-.36c1.28-.08 2.567-.147 3.86-.2 2.32-.107 4.627-.187 6.92-.24 2.293-.067 4.6-.1 6.92-.1h2.02l2.02-.04a32.891 32.891 0 0 1 1.62 0h1.66c.36 0 .72.007 1.08.02h1.88c.067 0 .113.027.14.08.04.053.067.107.08.16a.816.816 0 0 1-.08.4Z" class="F"/>
    <path fill="#D93D3D" d="M82.68 33.918c-.021.044-.087.066-.11.132-.22.418-.395.858-.615 1.298-.264.528-.484 1.078-.726 1.606a1.839 1.839 0 0 0-.176.44c-.022.044-.044.11-.022.132.11.176.022.286-.088.396-.022.088-.088.11-.132.088-.088-.022-.154-.11-.154-.154 0-.242-.022-.462 0-.682.044-.176.066-.33.088-.484 0-.11.066-.242.088-.396.044-.242.044-.484.11-.704.11-.264.044-.506.176-.704-.022-.264.088-.506.154-.748s.11-.506.154-.748c.176-.616.33-1.276.506-1.892.176-.638.374-1.254.55-1.87.11-.528.286-1.012.44-1.496.264-.792.55-1.584.88-2.31.176-.352.33-.682.484-1.012.242-.506.55-.968.88-1.43.088-.154.22-.286.374-.418.132-.154.33-.198.55-.198.132.022.242.044.352.132.044.066.088.11.176.198.066.066.066.198.044.286-.044.154-.132.308-.176.418.022.132.066.264.132.396.132-.154.132-.154.132-.418.264-.154.506-.264.726-.418.198.022.33.132.44.242.044.044.088.154.066.176-.154.264-.088.572-.088.858-.088 0-.132.044-.088.154 0 .022.022.022.022.044.044-.022.066-.022.066-.044v-.176a.24.24 0 0 1 .11.022l-.022-.022c0 .11 0 .242-.044.33-.198.418-.33.836-.506 1.232-.176.418-.352.836-.528 1.232-.352.726-.726 1.452-1.078 2.178-.44.902-.88 1.826-1.32 2.75-.308.616-.594 1.21-.88 1.848-.33.814-.792 1.606-1.078 2.442-.286.506-.418 1.056-.66 1.584-.11.198-.198.418-.242.616-.044.11-.11.198-.154.308a.556.556 0 0 1-.022-.418c.132-.44.154-.858.286-1.276.11-.308.176-.638.264-.946.176-.726.374-1.474.638-2.2.022-.11 0-.22 0-.374.044-.022.066-.022.088-.044.022-.022 0-.044 0-.11 0 0-.022 0-.022-.022-.022.022-.044.044-.044.088v.088Zm5.303-9.306.022.022c0-.088-.044-.22.044-.286.066.088.088.198-.066.264Zm.154-.44.022-.022v.022h-.022Zm-.844 9.394v-.022c-.044.022-.088.066-.088.154v.154c-.11.022-.11.132-.088.198.022.11.088.154.088.22 0 .022-.154.022-.154.088-.066.132-.066.286-.132.462-.044.154-.11.33-.198.506-.066.242-.264.374-.616.286-.088-.088-.264-.198-.374-.308a.848.848 0 0 1-.044-.616c.066-.33.088-.682.176-1.012.154-.748.33-1.408.506-2.09.352-.946.726-1.892 1.056-2.838.352-.924.748-1.804 1.122-2.728.11-.33.154-.682.352-.968.088-.154.088-.22.154-.264.198-.286.484-.418.88-.44.308 0 .462.22.66.352.11.154.286.374.418.528.154.176.198.396.088.55-.022.176 0 .286-.044.418 0 .242.11.506 0 .726-.022.088.022.176.022.264 0 .352.022.704.066 1.034.022.22.022.374-.066.572-.022.154.022.374.022.55 0 .242.132.528 0 .792-.022.044-.022.088-.022.132.044.484.088.968.132 1.474.022.088.066.198.22.242.132-.066.22-.22.308-.374.22-.638.462-1.21.726-1.826.198-.33.352-.704.506-1.078.132-.308.33-.572.44-.858.594-1.166 1.32-2.244 2.046-3.344.198-.198.352-.396.44-.616.132-.242.33-.396.616-.55.088-.044.176-.066.286-.11.176.022.352.11.528.242.198.132.308.286.176.462-.022.132-.132.22-.198.33v.11c.088.022.22.044.242.022.066-.088.154-.176.22-.264.11.066.088.132.044.242-.11.22-.264.462-.462.704-.286.418-.462.924-.748 1.364-.088.198-.154.352-.264.506a.659.659 0 0 1-.088.176c-.242.484-.462.924-.682 1.452-.22.594-.528 1.188-.726 1.848-.154.44-.396.902-.616 1.364-.308.572-.572 1.144-.902 1.716a31.5 31.5 0 0 0-1.166 2.266c-.11.242-.22.44-.33.682-.132-.176-.088-.308-.11-.506-.022-.154-.022-.33-.044-.462-.198-.066-.198.088-.286.11-.154 0-.22.022-.308.022-.154 0-.154.11-.154.176-.022.044-.176.044-.22 0-.132-.198-.33-.374-.396-.55-.286-.55-.528-1.012-.704-1.518a3.292 3.292 0 0 1-.198-.704c-.066-.22-.198-.374-.22-.572 0-.176-.022-.374-.176-.528-.044-.11-.066-.198-.022-.33a4.432 4.432 0 0 0-.286-1.122c-.33.396-.418.858-.616 1.276-.22.418-.33.88-.462 1.32-.088-.022-.11-.022-.176-.044-.11.088.088.176.088.308-.044.022-.066.066-.066.066-.022 0-.044-.022-.11-.044-.088.044-.066.154-.066.22Zm3.19-.462c-.022.506-.066.946.286 1.386.044-.11.022-.22.088-.308.088-.198.066-.396-.132-.616a3.147 3.147 0 0 0-.242-.462Zm.902-3.982a4.925 4.925 0 0 1-.11-1.276c.154.352.176.792.11 1.276Zm-.088.154c.022.022.044.044.044.066.044.352.066.682.088 1.078-.132-.484-.154-.704-.132-1.144Zm.022-2.134c0-.066-.022-.132-.044-.198 0-.264-.044-.572.022-.88.022.176.044.308.044.418.022.22.044.462-.022.66Zm.088 3.96s-.044.022-.044.066h-.022c-.066-.044-.088-.198-.066-.242h.066l.044.044a.327.327 0 0 1 .022.132Zm-4.114 2.442v.022c.176 0 .154.066.11.154-.088-.022-.11-.11-.11-.176Zm-.088.308c.154.066.132.132.088.198-.088-.044-.066-.11-.088-.198Zm12.787-8.778c.022 0 .066.022.11.066-.11.066-.088-.066-.11-.066-.089.022-.089.154-.089.22.111.11.111.22 0 .33 0 .176-.066.308-.132.484-.285.924-.615 1.848-.901 2.772.087.11.131 0 .22-.044.285-.374.615-.704.968-.99l1.496-1.342c.748-.594 1.518-1.144 2.31-1.716.484-.286.946-.638 1.386-.924.132-.044.264-.176.374-.198.176-.044.352-.044.484.044.11.154.242.242.374.352-.088.308-.286.506-.44.726a.181.181 0 0 0 .264.022c.088-.044.176-.11.264-.176l.132.066c-.22.176-.374.396-.616.572-.198.154-.352.352-.594.528-.33.154-.572.374-.814.594-.682.616-1.474 1.122-2.178 1.694-.528.44-1.122.792-1.672 1.21a.24.24 0 0 0-.088.044c-.594.528-.594.352-.242 1.034a46.687 46.687 0 0 0 1.342 2.068c.44.572.88 1.122 1.43 1.562.418.374.858.66 1.276 1.012.022.044.11.044.132.088.22.242.176.462-.132.616-.066.022-.088.066-.154.088a3.168 3.168 0 0 1-1.056-.594c-.418-.374-.858-.704-1.21-1.078-.022-.066-.132-.066-.176-.11l-.044-.198a8.442 8.442 0 0 1-.902-1.232c-.022-.044-.11-.066-.176-.132a.911.911 0 0 1 .022.22c.33.44.594.902.924 1.276a.526.526 0 0 1 .154.066c.022.11.022.176.066.198.572.572 1.1 1.144 1.782 1.606.242.154.484.308.858.352 0 .088-.088.11-.176.176a.76.76 0 0 1-.286.066c-.154 0-.22-.022-.352-.044-.066-.022-.176-.022-.242-.088-.088 0-.132-.044-.198-.044-.11.044-.044.132 0 .154.11.044.22.11.308.198.066 0 0 .044 0 .044-.088.066-.176.022-.242 0-.704-.286-1.298-.682-1.87-1.122-.55-.396-1.012-.858-1.496-1.32-.748-.704-1.364-1.562-1.87-2.53l-.066-.176c-.11.066-.154.088-.177.154-.066.154-.153.286-.175.374-.154.55-.287 1.034-.463 1.584-.175.748-.417 1.474-.835 2.134-.088.154-.308 1.012-.463 1.078a.583.583 0 0 0-.132.11c-.242.286-.44-.264-.791-.154-.11-.066-.22-.22-.309-.308-.088-.066-.175-.088-.33-.198-.11-.176-.131-.44-.131-.704-.066-.704.11-1.364.286-2.002.22-.77.44-1.562.77-2.31.285-.792.637-1.606.945-2.398.353-.77.727-1.584 1.145-2.354.308-.616.726-1.21 1.078-1.804.22-.286.484-.396.748-.484.11-.066.22-.044.263.044.133.11.22.22.375.33l.176-.154a.76.76 0 0 1-.066.286c-.067.088-.044.22-.067.352Zm-3.367 9.812c0-.022.067-.022.088-.022.089-.286.22-.55.287-.836.175-.462.285-.99.484-1.452a.986.986 0 0 0 .022-.264c.022-.088.132-.132.022-.242-.023.066-.11.088-.133.132-.066.154-.11.264-.11.396-.043.352-.263.638-.285.968-.044.33-.22.616-.308.924-.066.154-.066.286-.066.396Zm3.785-3.168h-.022c.066.264.198.55.396.748 0 .022.022 0 .044 0a1.688 1.688 0 0 0-.418-.748Zm-.374-.792v-.176c0-.088-.022-.154-.133-.154 0-.11.022-.22-.066-.352-.022-.022-.044-.066-.132-.022.044.154.044.308.198.374v.198c0 .066.022.132.133.132Zm-1.386-2.068a.586.586 0 0 0 .066-.264c-.088.044-.154.088-.176.176v.154c.021-.044.11-.044.11-.066Zm.285-.682v-.242c-.11.022-.11.066-.11.154v.154c.022-.022.11-.044.11-.066Zm.22-.682v-.198c-.066.022-.11.088-.11.11v.198c.088 0 .11-.066.11-.11Zm-.725 1.584v.198l.11-.066v-.242c-.044 0-.11.044-.11.11Zm.88-1.936c0-.044 0-.11-.044-.154-.067.022-.067.066-.067.088 0 .088 0 .154-.022.198.066 0 .132-.044.132-.132Zm.593-1.518c-.154-.11-.154-.22 0-.33v.33Zm-.506 1.188v-.22c-.066.022-.088.088-.088.176v.198c.067-.022.088-.088.088-.154Zm-.594 1.716c.023-.066 0-.154 0-.242-.066.022-.087.088-.087.154v.154c.022-.022.088-.022.088-.066Zm.704-2.046v-.198c-.066.022-.088.088-.088.132v.154c.088 0 .088-.022.088-.088Zm-.484 1.386v-.242a.121.121 0 0 0-.066.11v.198c.023-.022.067-.044.067-.066Zm1.211 3.454.022-.022c0-.066-.022-.11-.11-.132v.132s.044.022.088.022Zm-1.804-1.914v-.132c-.067.022-.11.066-.11.132 0 .022.044.044.044.044l.066-.044Zm-1.805 5.478c-.11.044-.11.11-.11.198 0 .022.022.022.044.044 0-.022.023-.022.023-.044 0-.066 0-.132.044-.198Zm3.763-3.322c0-.022-.066-.044-.088-.044a.222.222 0 0 1-.022.066c.022.066.066.066.088.11.022-.044.044-.066.022-.132Zm-.33-.616c0 .088-.044.176.066.176 0-.088.044-.132-.066-.176Zm-.507-4.884c0 .088-.022.132-.022.22.11-.044.089-.11.023-.22Zm.154-.154.044-.066c-.021-.022-.021-.044-.043-.044-.023.022-.067.044-.067.066 0 .022.067.022.067.044Zm.485-1.606c0 .066-.022.088-.044.088 0-.022 0-.044.044-.088Zm-.044.11-.022.022v-.044h.022v.022Z" class="Ink"/>
    <g class="Group 1">
      <path fill="#fff" d="M42.146 46.447c0-.191-.053-.385-.158-.58-.106-.199-.297-.385-.575-.556-.277-.172-.677-.315-1.2-.428a8.282 8.282 0 0 1-.938-.258 2.666 2.666 0 0 1-.668-.334 1.284 1.284 0 0 1-.405-.48 1.533 1.533 0 0 1-.134-.668 1.392 1.392 0 0 1 .562-1.131c.184-.149.406-.264.668-.346.262-.082.559-.123.89-.123.473 0 .878.076 1.214.229.34.152.6.365.779.638.184.27.275.584.275.944h-.322c0-.262-.076-.506-.228-.733a1.591 1.591 0 0 0-.657-.55c-.289-.141-.642-.212-1.06-.212-.426 0-.772.065-1.037.194-.266.129-.461.29-.586.486a1.113 1.113 0 0 0-.182.592c0 .164.023.316.07.457a.944.944 0 0 0 .27.387c.137.117.332.228.586.334.254.105.586.205.996.298.504.114.914.25 1.23.41.317.16.55.358.698.592.152.23.228.512.228.844 0 .246-.053.47-.158.674-.102.203-.25.379-.445.527a2.112 2.112 0 0 1-.703.346c-.274.078-.58.117-.92.117-.512 0-.946-.078-1.301-.234-.352-.16-.62-.371-.803-.633a1.507 1.507 0 0 1-.27-.861h.317c.027.363.146.648.357.855.215.203.475.348.78.434.308.082.615.123.92.123.418 0 .767-.067 1.049-.2.285-.132.5-.302.644-.51a1.13 1.13 0 0 0 .217-.644Zm6.978-4.787v.322H46.19v-.322h2.935Zm-1.763-1.71h.322v6.532c0 .371.043.653.129.844.09.188.207.315.352.381.148.063.306.094.474.094.121 0 .229-.004.323-.012.093-.012.195-.025.304-.041l.053.299a1.392 1.392 0 0 1-.334.053 4.048 4.048 0 0 1-.328.017c-.27 0-.502-.047-.697-.14-.192-.098-.34-.266-.446-.504-.101-.239-.152-.569-.152-.99v-6.534Zm10.418 6.585V41.66h.322V48h-.322v-1.465Zm.053-1.013.27-.012c0 .375-.05.72-.147 1.037a2.321 2.321 0 0 1-.451.832 2.019 2.019 0 0 1-.78.545c-.316.129-.693.193-1.13.193-.31 0-.592-.043-.85-.129a1.717 1.717 0 0 1-.662-.422 1.94 1.94 0 0 1-.428-.75c-.098-.312-.146-.689-.146-1.13V41.66h.316v4.037c0 .387.043.715.129.985.09.27.213.486.369.65.16.164.346.283.557.358.215.074.449.11.703.11.57 0 1.02-.109 1.347-.327.329-.22.561-.502.698-.85.136-.351.205-.719.205-1.101Zm9.281 1.248V39h.317v9h-.317v-1.23Zm-4.54-1.881v-.123c0-.5.052-.948.157-1.342.11-.399.266-.736.47-1.014.206-.281.458-.496.755-.644a2.223 2.223 0 0 1 1.008-.223c.348 0 .656.053.926.158.273.106.51.254.709.446.203.187.37.408.504.662.132.254.234.529.304.826v2.584c-.05.25-.14.49-.27.72a2.234 2.234 0 0 1-1.224 1.026 2.818 2.818 0 0 1-.96.152c-.376 0-.712-.076-1.009-.228a2.15 2.15 0 0 1-.744-.662 3.226 3.226 0 0 1-.468-1.02 5.102 5.102 0 0 1-.159-1.318Zm.327-.123v.123c0 .421.041.81.123 1.166.086.355.213.664.381.925.168.258.381.46.639.604.258.144.559.217.902.217.446 0 .825-.078 1.137-.235.313-.156.563-.365.75-.627a2.35 2.35 0 0 0 .387-.867v-2.226a3.82 3.82 0 0 0-.205-.633 2.3 2.3 0 0 0-.393-.65 1.853 1.853 0 0 0-.662-.504c-.27-.133-.603-.2-1.002-.2-.348 0-.65.073-.908.217a1.845 1.845 0 0 0-.645.61 2.938 2.938 0 0 0-.38.92 5.109 5.109 0 0 0-.124 1.16Zm9.692-3.106V48h-.316v-6.34h.316Zm-.48-1.98a.31.31 0 0 1 .093-.229.302.302 0 0 1 .229-.1c.09 0 .166.034.228.1.067.063.1.139.1.229s-.033.166-.1.228a.31.31 0 0 1-.228.094.311.311 0 0 1-.229-.094.31.31 0 0 1-.093-.228Zm4.84 5.273v-.246c0-.465.066-.89.199-1.277.137-.387.326-.721.568-1.002a2.53 2.53 0 0 1 .88-.65 2.643 2.643 0 0 1 1.124-.235c.414 0 .791.078 1.131.234.34.153.633.37.879.65.246.282.435.616.568 1.003.133.386.2.812.2 1.277v.246c0 .465-.067.89-.2 1.277a2.963 2.963 0 0 1-.568 1.002c-.242.282-.533.5-.873.657a2.72 2.72 0 0 1-1.125.228 2.74 2.74 0 0 1-1.131-.228 2.596 2.596 0 0 1-.879-.657 3.042 3.042 0 0 1-.574-1.002 3.909 3.909 0 0 1-.2-1.277Zm.316-.246v.246c0 .379.055.74.164 1.084.113.34.275.643.486.908.211.266.47.475.774.627.305.153.652.229 1.043.229a2.242 2.242 0 0 0 1.804-.856c.212-.265.372-.568.481-.908.11-.344.164-.705.164-1.084v-.246c0-.371-.055-.727-.164-1.066a2.789 2.789 0 0 0-.486-.909 2.309 2.309 0 0 0-.774-.638 2.24 2.24 0 0 0-1.037-.235 2.24 2.24 0 0 0-1.037.235c-.3.156-.559.369-.773.638a2.85 2.85 0 0 0-.48.909 3.44 3.44 0 0 0-.165 1.066Zm13.442 1.74c0-.191-.053-.385-.158-.58-.106-.199-.297-.385-.575-.556-.277-.172-.678-.315-1.2-.428a8.282 8.282 0 0 1-.938-.258 2.666 2.666 0 0 1-.668-.334 1.284 1.284 0 0 1-.405-.48 1.533 1.533 0 0 1-.134-.668 1.392 1.392 0 0 1 .562-1.131c.184-.149.406-.264.668-.346.262-.082.559-.123.89-.123.473 0 .878.076 1.214.229.34.152.6.365.779.638.183.27.275.584.275.944h-.322c0-.262-.076-.506-.228-.733a1.592 1.592 0 0 0-.657-.55c-.289-.141-.642-.212-1.06-.212-.426 0-.772.065-1.037.194-.266.129-.461.29-.586.486a1.113 1.113 0 0 0-.182.592c0 .164.023.316.07.457a.945.945 0 0 0 .27.387c.136.117.332.228.586.334.254.105.586.205.996.298.504.114.914.25 1.23.41.317.16.55.358.698.592.152.23.228.512.228.844 0 .246-.053.47-.158.674-.102.203-.25.379-.445.527a2.113 2.113 0 0 1-.704.346 3.35 3.35 0 0 1-.92.117c-.511 0-.945-.078-1.3-.234-.352-.16-.62-.371-.803-.633a1.507 1.507 0 0 1-.27-.861h.317c.027.363.146.648.357.855.215.203.475.348.78.434.308.082.615.123.92.123.418 0 .767-.067 1.048-.2.285-.132.5-.302.645-.51a1.13 1.13 0 0 0 .217-.644Z" class="studios"/>
      <path stroke="#fff" stroke-width=".3" d="M36.886 44H24m81 0H92.114" class="Vector 1"/>
    </g>
  </g>
</svg>
